<svg width="56" height="55" viewBox="0 0 56 55" fill="none" xmlns="http://www.w3.org/2000/svg">
<path d="M20.5 0H5.5C4.17392 0 2.90215 0.526784 1.96447 1.46447C1.02678 2.40215 0.5 3.67392 0.5 5V20C0.5 21.3261 1.02678 22.5979 1.96447 23.5355C2.90215 24.4732 4.17392 25 5.5 25H20.5C21.8261 25 23.0979 24.4732 24.0355 23.5355C24.9732 22.5979 25.5 21.3261 25.5 20V5C25.5 3.67392 24.9732 2.40215 24.0355 1.46447C23.0979 0.526784 21.8261 0 20.5 0ZM20.5 20H5.5V5H20.5V20ZM20.5 30H5.5C4.17392 30 2.90215 30.5268 1.96447 31.4645C1.02678 32.4021 0.5 33.6739 0.5 35V50C0.5 51.3261 1.02678 52.5979 1.96447 53.5355C2.90215 54.4732 4.17392 55 5.5 55H20.5C21.8261 55 23.0979 54.4732 24.0355 53.5355C24.9732 52.5979 25.5 51.3261 25.5 50V35C25.5 33.6739 24.9732 32.4021 24.0355 31.4645C23.0979 30.5268 21.8261 30 20.5 30ZM20.5 50H5.5V35H20.5V50ZM50.5 0H35.5C34.1739 0 32.9021 0.526784 31.9645 1.46447C31.0268 2.40215 30.5 3.67392 30.5 5V20C30.5 21.3261 31.0268 22.5979 31.9645 23.5355C32.9021 24.4732 34.1739 25 35.5 25H50.5C51.8261 25 53.0979 24.4732 54.0355 23.5355C54.9732 22.5979 55.5 21.3261 55.5 20V5C55.5 3.67392 54.9732 2.40215 54.0355 1.46447C53.0979 0.526784 51.8261 0 50.5 0ZM50.5 20H35.5V5H50.5V20ZM30.5 42.5V32.5C30.5 31.837 30.7634 31.2011 31.2322 30.7322C31.7011 30.2634 32.337 30 33 30C33.663 30 34.2989 30.2634 34.7678 30.7322C35.2366 31.2011 35.5 31.837 35.5 32.5V42.5C35.5 43.163 35.2366 43.7989 34.7678 44.2678C34.2989 44.7366 33.663 45 33 45C32.337 45 31.7011 44.7366 31.2322 44.2678C30.7634 43.7989 30.5 43.163 30.5 42.5ZM55.5 37.5C55.5 38.163 55.2366 38.7989 54.7678 39.2678C54.2989 39.7366 53.663 40 53 40H45.5V52.5C45.5 53.163 45.2366 53.7989 44.7678 54.2678C44.2989 54.7366 43.663 55 43 55H33C32.337 55 31.7011 54.7366 31.2322 54.2678C30.7634 53.7989 30.5 53.163 30.5 52.5C30.5 51.837 30.7634 51.2011 31.2322 50.7322C31.7011 50.2634 32.337 50 33 50H40.5V32.5C40.5 31.837 40.7634 31.2011 41.2322 30.7322C41.7011 30.2634 42.337 30 43 30C43.663 30 44.2989 30.2634 44.7678 30.7322C45.2366 31.2011 45.5 31.837 45.5 32.5V35H53C53.663 35 54.2989 35.2634 54.7678 35.7322C55.2366 36.2011 55.5 36.837 55.5 37.5ZM55.5 47.5V52.5C55.5 53.163 55.2366 53.7989 54.7678 54.2678C54.2989 54.7366 53.663 55 53 55C52.337 55 51.7011 54.7366 51.2322 54.2678C50.7634 53.7989 50.5 53.163 50.5 52.5V47.5C50.5 46.837 50.7634 46.2011 51.2322 45.7322C51.7011 45.2634 52.337 45 53 45C53.663 45 54.2989 45.2634 54.7678 45.7322C55.2366 46.2011 55.5 46.837 55.5 47.5Z" fill="black"/>
</svg>
